<svg width="181" height="42" viewBox="0 0 181 42" fill="none" xmlns="http://www.w3.org/2000/svg">
<path d="M24.48 5.365C25.02 5.365 25.29 5.68 25.29 6.175V10C25.29 10.54 25.02 10.855 24.48 10.855H10.035V20.71H22.5C22.995 20.71 23.31 21.025 23.31 21.565V25.39C23.31 25.93 22.995 26.2 22.5 26.2H10.035V36.19C10.035 36.685 9.72 37 9.225 37H4.68C4.14 37 3.825 36.685 3.825 36.19V6.175C3.825 5.68 4.14 5.365 4.68 5.365H24.48ZM51.1988 31.555C51.7388 31.555 52.0538 31.825 52.0538 32.365V36.19C52.0538 36.685 51.7388 37 51.1988 37H31.3988C30.8588 37 30.5438 36.685 30.5438 36.19V6.175C30.5438 5.68 30.8588 5.365 31.3988 5.365H35.9438C36.4388 5.365 36.7538 5.68 36.7538 6.175V31.555H51.1988ZM68.9168 37.405C60.5468 37.405 55.0118 32.545 55.0118 23.41V6.175C55.0118 5.68 55.2818 5.365 55.8218 5.365H60.4118C60.9518 5.365 61.2218 5.68 61.2218 6.175V23.905C61.2218 28.18 63.7418 31.78 68.9618 31.78C74.1368 31.78 76.6568 28.18 76.6568 23.905V6.175C76.6568 5.68 76.9268 5.365 77.4668 5.365H82.0118C82.5068 5.365 82.8218 5.68 82.8218 6.175V23.41C82.8218 32.545 77.2868 37.405 68.9168 37.405ZM111.061 31.555C111.556 31.555 111.871 31.825 111.871 32.365V36.19C111.871 36.685 111.556 37 111.061 37H90.9007C90.3607 37 90.0457 36.685 90.0457 36.19V6.175C90.0457 5.68 90.3607 5.365 90.9007 5.365H110.881C111.421 5.365 111.736 5.68 111.736 6.175V10C111.736 10.54 111.421 10.855 110.881 10.855H96.2557V18.28H109.036C109.576 18.28 109.891 18.595 109.891 19.135V22.96C109.891 23.455 109.576 23.77 109.036 23.77H96.2557V31.555H111.061ZM145.669 5.365C146.209 5.365 146.524 5.68 146.524 6.175V36.55C146.524 37.09 146.209 37.36 145.669 37.36H143.644C143.194 37.36 142.879 37.225 142.609 36.91L124.159 16.21V36.19C124.159 36.685 123.844 37 123.304 37H118.894C118.399 37 118.084 36.685 118.084 36.19V5.86C118.084 5.365 118.399 5.05 118.894 5.05H120.964C121.414 5.05 121.729 5.23 121.999 5.5L140.404 26.155V6.175C140.404 5.68 140.719 5.365 141.214 5.365H145.669ZM177.202 5.365C177.742 5.365 178.057 5.68 178.057 6.175V10C178.057 10.54 177.742 10.855 177.202 10.855H167.572V36.19C167.572 36.685 167.257 37 166.717 37H162.172C161.632 37 161.362 36.685 161.362 36.19V10.855H151.642C151.102 10.855 150.832 10.54 150.832 10V6.175C150.832 5.68 151.102 5.365 151.642 5.365H177.202Z" fill="black"/>
</svg>
